<?xml version="1.0" encoding="UTF-8" standalone="no"?>
<!-- Created with Inkscape (http://www.inkscape.org/) -->

<svg
   xmlns:dc="http://purl.org/dc/elements/1.1/"
   xmlns:cc="http://creativecommons.org/ns#"
   xmlns:rdf="http://www.w3.org/1999/02/22-rdf-syntax-ns#"
   xmlns:svg="http://www.w3.org/2000/svg"
   xmlns="http://www.w3.org/2000/svg"
   xmlns:sodipodi="http://sodipodi.sourceforge.net/DTD/sodipodi-0.dtd"
   xmlns:inkscape="http://www.inkscape.org/namespaces/inkscape"
   id="svg3039"
   version="1.1"
   inkscape:version="0.48.5 r10040"
   width="117"
   height="60"
   sodipodi:docname="clique180-logo.png">
  <metadata
     id="metadata3045">
    <rdf:RDF>
      <cc:Work
         rdf:about="">
        <dc:format>image/svg+xml</dc:format>
        <dc:type
           rdf:resource="http://purl.org/dc/dcmitype/StillImage" />
        <dc:title></dc:title>
      </cc:Work>
    </rdf:RDF>
  </metadata>
  <defs
     id="defs3043" />
  <sodipodi:namedview
     pagecolor="#ffffff"
     bordercolor="#666666"
     borderopacity="1"
     objecttolerance="10"
     gridtolerance="10"
     guidetolerance="10"
     inkscape:pageopacity="0"
     inkscape:pageshadow="2"
     inkscape:window-width="1366"
     inkscape:window-height="709"
     id="namedview3041"
     showgrid="false"
     inkscape:zoom="2.1833333"
     inkscape:cx="128.96089"
     inkscape:cy="-12.539771"
     inkscape:window-x="-3"
     inkscape:window-y="-3"
     inkscape:window-maximized="1"
     inkscape:current-layer="svg3039" />
  <path
     style="fill:#bfbfbf"
     d="m 18.648209,58.741077 c -0.0167,-1.06392 -0.7498,-4.49832 -1.62907,-7.632 l -1.59867,-5.6976 -5.9013298,-0.66766 c -3.24573,-0.36721 -5.90134,-0.88155 -5.90134,-1.14297 0,-0.26142 1.58162,-3.61598 3.51471,-7.45457 l 3.5146998,-6.97927 -2.6492298,-5.24577 c -1.45707,-2.88517 -3.94813,-7.14057 -5.53568,-9.45644 l -2.88646,-4.21068 7.53114,3.57653 c 9.8522098,4.67879 16.4224998,4.49767 27.2608298,-0.75148 7.73679,-3.7470401 8.81514,-3.7070801 4.64173,0.17199 -10.52774,9.78524 -12.31534,15.17518 -7.7734,23.43822 4.19149,7.62547 4.28017,7.36033 -2.73272,8.16997 -6.23133,0.71942 -6.52632,1.02779 -7.4312,7.7683 -0.73704,5.49019 -2.3691,9.60631 -2.42401,6.11343 z m 30.9696,-14.9506 c 0,-11.13942 -0.0557,-11.42151 -2.5842,-13.07822 -3.7973,-2.48809 -0.91247,-5.53679 5.23918,-5.53679 l 4.34502,0 0,15 0,15 -3.5,0 -3.5,0 0,-11.38499 z m 16.31537,10.4293 c -4.41302,-1.88165 -5.86814,-9.49154 -2.46554,-12.89414 1.64152,-1.64152 1.67531,-1.95993 0.3,-2.82745 -6.96203,-4.39154 0.24681,-12.82272 10.963689,-12.82272 10.76861,0 15.97622,6.41026 10.03455,12.35193 -1.80257,1.80257 -1.80257,1.88275 0,3.00847 10.0107,6.25179 -7.06126,18.20308 -18.832699,13.18391 z m 13.113199,-5.61574 c 3.97425,-3.97425 -2.52157,-8.24879 -8.846789,-5.82158 -1.89075,0.72555 -2.1506,5.99682 -0.33178,6.73073 2.680709,1.08169 7.683239,0.58618 9.178569,-0.90915 z m 0.40892,-14.31548 c 0.38655,-2.73391 -1.21679,-4.07576 -4.89636,-4.09778 -3.845839,-0.023 -6.330739,2.18178 -5.479989,4.86226 1.08133,3.40699 9.878169,2.75888 10.376349,-0.76448 z m 15.01857,19.42456 c -4.30268,-2.42541 -6.3263,-13.89158 -3.97757,-22.53765 2.2775,-8.38387 22.331792,-7.95294 25.134742,0.5401 5.45646,16.53323 -7.30774,29.80445 -21.157172,21.99755 z m 13.209682,-4.57283 c 5.23626,-2.80236 2.21653,-17.84901 -3.74254,-18.64829 -5.960652,-0.79949 -7.323202,1.09929 -7.323202,10.20521 0,9.02625 4.112722,12.16422 11.065742,8.44308 z M 86.117808,23.175467 c -0.33992,-0.55 -2.56833,-1 -4.95203,-1 -4.8534,0 -5.54797,-0.87126 -5.54797,-6.95934 0,-6.6158001 11.22044,-9.0910905 13.36834,-2.94913 1.71036,4.89081 -0.76629,14.30966 -2.86834,10.90847 z m -1.55019,-4.43953 c 3.13277,-3.77476 -0.84974,-9.5482601 -4.49785,-6.5206 -1.47653,1.22541 -1.99918,6.07958 -0.7853,7.29346 1.15015,1.15015 4.03777,0.72773 5.28315,-0.77286 z m -36.949809,3.54961 c -2.85028,-0.78732 -4.20297,-8.95566 -1.93552,-11.68777 1.19414,-1.4388601 7.44589,-1.9311601 10.35373,-0.8153201 2.01142,0.7718601 2.07884,4.3930101 0.0818,4.3930101 -0.825,0 -1.5,-0.45 -1.5,-1 0,-0.55 -1.60216,-1 -3.56037,-1 -3.5027,0 -3.55534,0.0607 -3.25,3.75 0.3273,3.95457 3.68044,5.77993 6.1257,3.33467 1.57871,-1.57871 3.68467,-1.32718 3.68467,0.44008 0,2.65571 -5.03381,3.95712 -10,2.58533 z m 12,-6.61008 c 0,-5.11111 0.32051,-6.5000001 1.5,-6.5000001 1.15151,0 1.5,1.2777801 1.5,5.5000001 l 0,5.5 3.5,0 c 1.925,0 3.5,0.45 3.5,1 0,0.55 -2.25,1 -5,1 l -5,0 0,-6.5 z m 11,0 c 0,-5.11111 0.32051,-6.5000001 1.499999,-6.5000001 1.17948,0 1.5,1.3888901 1.5,6.5000001 0,5.11111 -0.32052,6.5 -1.5,6.5 -1.179489,0 -1.499999,-1.38889 -1.499999,-6.5 z m 20.624709,4.9644 c -1.55063,-4.04086 -0.69392,-11.4644001 1.32303,-11.4644001 1.6446,0 1.99478,0.81708 2.25,5.2500001 0.27938,4.85273 0.49143,5.25 2.80226,5.25 2.31082,0 2.522872,-0.39727 2.802262,-5.25 0.22213,-3.85817 0.69872,-5.2500001 1.79772,-5.2500001 1.19952,0 1.43654,1.2368301 1.19774,6.2500001 l -0.29772,6.25 -5.625292,0.29618 c -4.45708,0.23468 -5.75503,-0.0419 -6.25,-1.33178 z m 14.375292,-4.9644 0,-6.5000001 5.5,0 c 4.22222,0 5.5,0.34849 5.5,1.5000001 0,1.04762 -1.05556,1.5 -3.5,1.5 -1.925,0 -3.5,0.45 -3.5,1 0,0.55 1.575,1 3.5,1 2.44444,0 3.5,0.45238 3.5,1.5 0,1.04762 -1.05556,1.5 -3.5,1.5 -2.44444,0 -3.5,0.45238 -3.5,1.5 0,1.04762 1.05556,1.5 3.5,1.5 1.925,0 3.5,0.45 3.5,1 0,0.55 -2.475,1 -5.5,1 l -5.5,0 0,-6.5 z m -92.171661,-0.4267 c -4.5481598,-1.46136 -4.8144698,-1.99626 -2.26378,-4.54696 1.33949,-1.3394801 2.43543,-3.3232205 2.43543,-4.4083005 0,-5.32533997 9.85026,-8.0352399 13.82569,-3.80359 6.71808,7.1510704 -3.22963,16.2186005 -13.99734,12.7588505 z"
     id="path3063"
     inkscape:connector-curvature="0" />
  <path
     style="fill:#6d6d6d"
     d="m 17.027416,50.79699 -1.43621,-6.24413 -5.15575,-1 C 3.5451765,42.21643 3.5529465,42.23773 7.2336865,34.77357 10.928626,27.28062 10.796136,26.50566 4.0304965,16.0379 l -3.77007,-5.83302 6.11086,2.88998 C 17.098826,18.16818 26.077776,17.48273 37.118556,10.74763 l 3.5,-2.13507 -3.27843,3.97015 c -1.80314,2.18358 -5.04563,6.50349 -7.20554,9.5998 l -3.9271,5.62965 3.43282,6.37035 c 4.49006,8.33228 4.45063,8.49729 -2.27175,9.50683 l -5.75,0.86352 -1.14791,5.81458 c -1.5218,7.70846 -1.76213,7.73844 -3.44323,0.42955 z m 49.301629,2.12685 c -5.35676,-1.5448 -6.93028,-8.2421 -2.88654,-12.28584 2.20693,-2.20693 2.2321,-2.3813 0.5,-3.46302 -9.360039,-5.84544 5.60437,-15.69168 17.84247,-11.73995 4.00585,1.29351 5.14303,9.85279 1.58963,11.96479 -1.17728,0.69973 -1.06263,1.18458 0.65947,2.78896 2.25033,2.0965 2.75456,6.7435 1.07271,9.88606 -1.84629,3.44983 -11.5756,4.92598 -18.77774,2.849 z m 13.18196,-6.12098 c 1.85807,-2.96325 -0.43752,-5.20651 -5.68176,-5.55222 -5.3602,-0.35335 -7.70966,2.0671 -5.68275,5.85443 1.42871,2.66955 9.63799,2.45125 11.36451,-0.30221 z m -1.56237,-10.62382 c 0.75546,-0.47893 1.18748,-2.09236 1,-3.73469 -0.45906,-4.02134 -10.09474,-4.55159 -10.65684,-0.58645 -0.61552,4.34198 5.38705,7.02794 9.65684,4.32114 z m 18.43985,17.17069 c -5.36819,-1.03691 -8.38524,-13.80902 -5.66106,-23.96499 1.68828,-6.29403 20.160595,-6.3682 23.518215,-0.0944 1.51457,2.83 1.52265,17.67999 0.0111,20.50425 -1.80965,3.38137 -10.16331,5.04345 -17.868305,3.55517 z m 11.148285,-4.90386 c 1.99033,-0.76376 2.31551,-16.2593 0.38179,-18.19301 -5.34682,-5.34682 -11.800005,-0.53428 -11.800005,8.8 0,9.52828 3.519895,12.42387 11.418215,9.39301 z M 49.118556,41.96315 c 0,-10.15562 -0.18186,-11.23697 -2.15911,-12.83805 -3.1055,-2.51468 -1.49214,-4.07224 4.21813,-4.07224 l 4.94098,0 0,14 0,14 -3.5,0 -3.5,0 0,-11.08971 z M 15.476306,14.07401 c -6.03551,-1.39156 -7.09324,-2.02343 -5.18276,-3.09612 0.92125,-0.51725 2.2174,-2.62449 2.88033,-4.6827496 2.61554,-8.1207 11.34827,-9.96224 14.98834,-3.16071 3.4499,6.4461896 -4.06558,12.9270996 -12.68591,10.9395796 z"
     id="path3053"
     inkscape:connector-curvature="0" />
</svg>
