<?xml version="1.0" encoding="UTF-8" standalone="no"?>
<!-- Created with Inkscape (http://www.inkscape.org/) -->

<svg
   xmlns:dc="http://purl.org/dc/elements/1.1/"
   xmlns:cc="http://creativecommons.org/ns#"
   xmlns:rdf="http://www.w3.org/1999/02/22-rdf-syntax-ns#"
   xmlns:svg="http://www.w3.org/2000/svg"
   xmlns="http://www.w3.org/2000/svg"
   xmlns:sodipodi="http://sodipodi.sourceforge.net/DTD/sodipodi-0.dtd"
   xmlns:inkscape="http://www.inkscape.org/namespaces/inkscape"
   width="640px"
   height="480px"
   id="svg3994"
   version="1.1"
   inkscape:version="0.48.5 r10040"
   sodipodi:docname="Novo documento 13">
  <defs
     id="defs3996" />
  <sodipodi:namedview
     id="base"
     pagecolor="#ffffff"
     bordercolor="#666666"
     borderopacity="1.0"
     inkscape:pageopacity="0.0"
     inkscape:pageshadow="2"
     inkscape:zoom="0.77472527"
     inkscape:cx="297.41135"
     inkscape:cy="240"
     inkscape:current-layer="layer1"
     inkscape:document-units="px"
     showgrid="false"
     inkscape:window-width="1366"
     inkscape:window-height="709"
     inkscape:window-x="-3"
     inkscape:window-y="-3"
     inkscape:window-maximized="1" />
  <metadata
     id="metadata3999">
    <rdf:RDF>
      <cc:Work
         rdf:about="">
        <dc:format>image/svg+xml</dc:format>
        <dc:type
           rdf:resource="http://purl.org/dc/dcmitype/StillImage" />
        <dc:title></dc:title>
      </cc:Work>
    </rdf:RDF>
  </metadata>
  <g
     id="layer1"
     inkscape:label="Layer 1"
     inkscape:groupmode="layer">
    <g
       transform="matrix(13.549096,0,0,13.246002,3982.879,1935.4032)"
       id="g3"
       style="fill:#ff875a;fill-opacity:1"
       inkscape:export-filename="/home/icarojerry/projects/marque-denuncia/resources/images/vectors/md-pointer-larger.png"
       inkscape:export-xdpi="90"
       inkscape:export-ydpi="90">
      <path
         d="m -272,-144 c -6.627,0 -12,5.373 -12,12 0,6.627 10,20 12,20 2,0 12,-13.373 12,-20 0,-6.627 -5.373,-12 -12,-12 z m 0,20 c -4.412,0 -8,-3.59 -8,-8 0,-4.41 3.588,-8 8,-8 4.412,0 8,3.59 8,8 0,4.41 -3.588,8 -8,8 z"
         id="path5"
         style="fill:#ff875a;fill-opacity:1"
         inkscape:connector-curvature="0" />
    </g>
    <g
       id="layer1-4"
       inkscape:label="Layer 1"
       transform="matrix(1.1297828,0,0,1.1727836,-236.14612,-565.06791)"
       style="fill:#ff875a;fill-opacity:1"
       inkscape:export-filename="/home/icarojerry/projects/marque-denuncia/resources/images/vectors/md-pointer-larger.png"
       inkscape:export-xdpi="90"
       inkscape:export-ydpi="90">
      <path
         inkscape:connector-curvature="0"
         id="path3280"
         d="m 488.96638,719.38259 c -0.77886,0.1783 -4.38993,-0.27171 -8.0246,-1.00003 -4.0475,-0.81102 -8.7065,-1.09942 -12.02226,-0.74419 -3.33027,0.35681 -7.27453,0.10968 -10.24881,-0.64212 -3.15782,-0.7982 -6.19215,-2.45489 -8.7473,-4.77588 -2.15173,-1.95456 -5.61157,-5.12298 -7.68853,-7.04094 -2.07695,-1.91796 -5.88817,-5.15131 -8.46936,-7.18522 -2.58119,-2.03392 -5.74441,-4.53601 -7.02939,-5.5602 -1.28496,-1.0242 -3.20898,-2.73162 -4.27559,-3.79427 -1.0666,-1.06265 -2.64981,-2.81021 -3.51822,-3.88347 -0.86842,-1.07325 -2.09949,-2.92724 -2.73572,-4.11997 -0.63623,-1.19273 -2.26229,-3.26953 -3.61345,-4.61512 -1.35117,-1.34557 -4.38172,-4.48799 -6.73455,-6.98315 -2.35283,-2.49514 -7.07458,-6.93137 -10.49277,-9.85826 -3.41819,-2.9269 -6.76008,-6.61974 -7.42642,-8.20632 -1.07085,-2.54969 -0.99233,-3.17513 0.67615,-5.38587 1.61241,-2.13644 2.69089,-2.54266 7.39557,-2.78559 3.02935,-0.15642 7.44682,0.25686 9.81662,0.91841 3.51375,0.98088 6.19196,3.06011 14.51569,11.2692 8.46709,8.35048 10.55912,9.96372 12.27292,9.46405 1.13627,-0.33128 3.55287,-1.75746 5.3702,-3.16927 1.81734,-1.41182 4.02376,-3.77949 4.90315,-5.26148 0.87939,-1.48201 2.43953,-6.41895 3.46699,-10.97101 1.36591,-6.05157 1.61961,-8.92105 0.94374,-10.67427 -0.5084,-1.31879 -1.79427,-6.60266 -2.8575,-11.74191 -1.06324,-5.13926 -2.56005,-12.90551 -3.32624,-17.25834 -0.76619,-4.35284 -1.61873,-13.3988 -1.89451,-20.10216 -0.50143,-12.18791 -0.50143,-12.18791 2.09101,-14.19908 1.42583,-1.10613 3.70341,-1.99783 5.0613,-1.98155 1.35788,0.0163 3.13784,0.54002 3.95545,1.16386 0.81761,0.62384 1.9859,2.55849 2.59619,4.29922 0.6103,1.74074 1.10963,4.33288 1.10963,5.76032 0,1.42743 0.80537,5.86904 1.78973,9.87024 0.98435,4.0012 2.41583,9.16036 3.18106,11.4648 0.76524,2.30444 2.553,8.37978 3.97283,13.50076 1.41983,5.12098 3.01786,10.35834 3.55121,11.63859 0.55249,1.32619 1.15165,1.83214 1.39258,1.1759 0.23257,-0.63351 0.53942,-4.3364 -0.0209,-7.89778 -0.56027,-3.56137 -0.44683,-10.07884 -0.45059,-13.82148 -0.004,-3.74264 -0.70259,-12.27746 -0.14758,-19.95893 0.55502,-7.68147 1.41925,-16.08235 1.92052,-18.66864 0.7159,-3.69368 1.49405,-5.04177 3.62773,-6.28484 1.49398,-0.87037 3.54936,-1.5825 4.5675,-1.5825 1.01816,0 2.90297,0.81595 4.18848,1.81323 2.28342,1.77144 2.35323,2.20587 3.02955,18.85451 0.38075,9.3727 0.85778,21.02168 1.06006,25.88661 0.20228,4.86493 0.66121,12.40674 1.01983,16.75957 1.16273,14.54865 4.54765,-10.166 5.62328,-14.89739 1.27311,-5.37703 2.30912,-10.79414 2.30225,-12.03803 -0.007,-1.24388 0.38601,-3.54832 0.87308,-5.12098 0.48706,-1.57265 1.34077,-6.168 1.89713,-10.2119 0.69067,-5.02016 1.53279,-7.74284 2.65468,-8.58294 0.90373,-0.67673 3.41784,-1.24374 5.58692,-1.26003 3.19487,-0.024 4.33369,0.45663 5.99704,2.53088 1.74817,2.18003 1.95636,3.25224 1.40114,7.21593 -0.35866,2.56049 -1.0092,8.21684 -1.44563,12.56967 -0.43645,4.35284 -1.24016,12.02604 -1.78605,17.05156 -0.54589,5.02552 -1.18408,9.44297 -1.41819,9.81656 -0.2341,0.37358 -1.1522,4.98039 -2.0402,10.23734 -1.04781,6.20294 -1.29172,9.87648 -0.69489,10.4651 0.50581,0.49886 1.52726,0.67707 2.26987,0.39601 0.74262,-0.28104 1.94791,-1.86599 2.67844,-3.52209 0.73051,-1.65611 1.59548,-3.2206 1.92217,-3.47665 0.32668,-0.25604 2.54166,-3.39846 4.92218,-6.98315 2.38051,-3.58468 5.24299,-8.40306 6.36106,-10.7075 1.11806,-2.30444 3.20557,-6.1883 4.6389,-8.63081 1.43333,-2.4425 3.51285,-5.33526 4.62117,-6.42834 1.26774,-1.2503 3.12459,-1.9563 5.00653,-1.90352 1.64527,0.0462 3.79835,0.80413 4.78464,1.68443 0.98629,0.8803 1.79326,2.82971 1.79326,4.33202 0,1.50232 -1.94268,6.77949 -4.31705,11.72706 -2.37439,4.94756 -5.4457,11.30002 -6.82516,14.11655 -1.37946,2.81654 -3.74303,7.14563 -5.25239,9.62021 -1.50936,2.47457 -3.96086,8.09312 -5.44777,12.48566 -1.48691,4.39255 -2.70347,9.0191 -2.70347,10.28122 0,1.26213 -0.90576,6.95629 -2.01281,12.65368 -1.10704,5.69741 -3.11388,13.08234 -4.45965,16.41098 -1.34576,3.32864 -2.88595,6.89004 -3.42264,7.91424 -0.53669,1.02419 -2.77078,4.44714 -4.96464,7.60653 -2.19386,3.15941 -5.16452,6.55497 -6.60145,7.5457 -1.43693,0.99072 -3.88711,2.09182 -5.44483,2.44686 -1.55771,0.35504 -3.46945,0.79141 -4.24831,0.96971 z m -21.2957,-88.12631 c -111.3765,161.55962 -55.68825,80.77981 0,0 z"
         style="fill:#ff875a;fill-opacity:1"
         sodipodi:nodetypes="csssssssssssssssssssssssssssssssssssscsssssssscccssscssssssscscsssscsssssssssssssccc" />
    </g>
  </g>
</svg>
